<svg width="50" height="50" viewBox="0 0 50 50" fill="none" xmlns="http://www.w3.org/2000/svg">
<path d="M44.9126 6.49457C44.5359 6.16919 44.0773 5.9531 43.5865 5.86972C43.0958 5.78633 42.5916 5.83883 42.1286 6.02153L6.08229 20.1827C5.53249 20.3986 5.06742 20.7868 4.75665 21.2892C4.44589 21.7915 4.30616 22.381 4.35836 22.9694C4.41056 23.5577 4.65189 24.1134 5.04623 24.5532C5.44057 24.993 5.96673 25.2932 6.54596 25.409L16.0159 27.3028V39.0592C16.0153 39.6003 16.1754 40.1294 16.4757 40.5794C16.7761 41.0294 17.2033 41.3802 17.7032 41.5872C18.2031 41.7943 18.7532 41.8483 19.2838 41.7424C19.8144 41.6366 20.3017 41.3756 20.6838 40.9926L26.0098 35.6664L33.9756 42.6766C34.4711 43.1165 35.1104 43.3598 35.7729 43.3606C36.0609 43.3602 36.3471 43.3148 36.6211 43.226C37.0731 43.0827 37.4795 42.8233 37.8 42.4739C38.1204 42.1244 38.3436 41.6971 38.4473 41.2344L45.7936 9.17719C45.9055 8.6922 45.8826 8.18584 45.7273 7.71295C45.572 7.24005 45.2904 6.81865 44.9128 6.49438L44.9126 6.49457ZM6.69303 22.7622C6.68037 22.6774 6.69815 22.591 6.74321 22.5182C6.78826 22.4453 6.85768 22.3908 6.93912 22.3643L37.101 10.5149L16.9161 25.0928L7.00553 23.1106C6.92063 23.0989 6.84264 23.0574 6.78542 22.9936C6.7282 22.9298 6.69546 22.8478 6.69303 22.7622ZM19.0264 39.3356C18.9718 39.3902 18.9022 39.4274 18.8264 39.4425C18.7507 39.4575 18.6721 39.4498 18.6008 39.4202C18.5294 39.3907 18.4684 39.3406 18.4255 39.2764C18.3826 39.2122 18.3596 39.1367 18.3596 39.0594V28.9344L24.2469 34.1153L19.0264 39.3356ZM36.1628 40.711C36.1477 40.777 36.1157 40.8379 36.07 40.8878C36.0243 40.9377 35.9664 40.9749 35.9019 40.9957C35.8375 41.0165 35.7688 41.0202 35.7025 41.0065C35.6363 40.9927 35.5747 40.9619 35.5239 40.9172L19.0641 26.4327L43.4751 8.80258L36.1628 40.711Z" fill="white"/>
</svg>
